HIERARCHY
ROOT Hips
{
	OFFSET 0.00000 0.00000 0.00000
	CHANNELS 6 Xposition Yposition Zposition Zrotation Yrotation Xrotation 
	JOINT LHipJoint
	{
		OFFSET 0 0 0
		CHANNELS 3 Zrotation Yrotation Xrotation
		JOINT LeftHip
		{
			OFFSET 1.48831 -1.59570 0.95625
			CHANNELS 3 Zrotation Yrotation Xrotation
			JOINT LeftKnee
			{
				OFFSET 2.20856 -6.06797 0.00000
				CHANNELS 3 Zrotation Yrotation Xrotation
				JOINT LeftAnkle
				{
					OFFSET 2.62924 -7.22379 0.00000
					CHANNELS 3 Zrotation Yrotation Xrotation
					JOINT LeftToe
					{
						OFFSET 0.16802 -0.46163 2.41673
						CHANNELS 3 Zrotation Yrotation Xrotation
						End Site
						{
							OFFSET 0.00000 -0.00000 1.23760
						}
					}
				}
			}
		}
	}
	JOINT RHipJoint
	{
		OFFSET 0 0 0
		CHANNELS 3 Zrotation Yrotation Xrotation
		JOINT RightHip
		{
			OFFSET -1.56796 -1.59570 0.95625
			CHANNELS 3 Zrotation Yrotation Xrotation
			JOINT RightKnee
			{
				OFFSET -2.29239 -6.29829 0.00000
				CHANNELS 3 Zrotation Yrotation Xrotation
				JOINT RightAnkle
				{
					OFFSET -2.66963 -7.33475 0.00000
					CHANNELS 3 Zrotation Yrotation Xrotation
					JOINT RightToe
					{
						OFFSET -0.18185 -0.49964 2.34359
						CHANNELS 3 Zrotation Yrotation Xrotation
						End Site
						{
							OFFSET -0.00000 -0.00000 1.20477
						}
					}
				}
			}
		}
	}
	JOINT lowerback
	{
		OFFSET 0 0 0
		CHANNELS 3 Zrotation Yrotation Xrotation
		JOINT Chest
		{
			OFFSET 0.03505 2.15832 -0.34324
			CHANNELS 3 Zrotation Yrotation Xrotation
			JOINT Chest2
			{
				OFFSET -0.01089 2.17963 0.04689
				CHANNELS 3 Zrotation Yrotation Xrotation
				JOINT lowerneck
				{
					OFFSET 0 0 0
					CHANNELS 3 Zrotation Yrotation Xrotation
					JOINT Neck
					{
						OFFSET 0.04686 1.69404 0.22159
						CHANNELS 3 Zrotation Yrotation Xrotation
						JOINT Head
						{
							OFFSET 0.00265 1.69305 -0.01513
							CHANNELS 3 Zrotation Yrotation Xrotation
							End Site
							{
								OFFSET -0.00415 1.80215 -0.03034
							}
						}
					}
				}
				JOINT LeftCollar
				{
					OFFSET 0 0 0
					CHANNELS 3 Zrotation Yrotation Xrotation
					JOINT LeftShoulder
					{
						OFFSET 3.67184 1.11724 -0.19002
CHANNELS 3 Zrotation Xrotation Yrotation
						JOINT LeftElbow
						{
OFFSET 0 -5.177140 -0.000000
CHANNELS 3 Zrotation Xrotation Yrotation
							JOINT LeftWrist
							{
OFFSET 0 -3.436790 -0.000000
CHANNELS 3 Zrotation Xrotation Yrotation
								JOINT lhand
								{
									OFFSET 0 0 0
CHANNELS 3 Zrotation Xrotation Yrotation
									JOINT LFingers
									{
OFFSET 0 -0.573120 -0.000000
CHANNELS 3 Zrotation Xrotation Yrotation
										End Site
										{
OFFSET 0 -0.462060 -0.000000
										}
									}
								}
								JOINT LThumb
								{
OFFSET 0 0.000000 0.000000
CHANNELS 3 Zrotation Xrotation Yrotation
									End Site
									{
OFFSET 0 -0.469120 0.469120
									}
								}
							}
						}
					}
				}
				JOINT RightCollar
				{
					OFFSET 0 0 0
					CHANNELS 3 Zrotation Yrotation Xrotation
					JOINT RightShoulder
					{
						OFFSET -3.59596 0.95831 -0.26050
CHANNELS 3 Zrotation Xrotation Yrotation
						JOINT RightElbow
						{
OFFSET 0 -5.239080 -0.000000
CHANNELS 3 Zrotation Xrotation Yrotation
							JOINT RightWrist
							{
OFFSET 0 -3.464850 -0.000000
CHANNELS 3 Zrotation Xrotation Yrotation
								JOINT rhand
								{
									OFFSET 0 0 0
CHANNELS 3 Zrotation Xrotation Yrotation
									JOINT RFingers
									{
OFFSET 0 -0.608750 -0.000000
CHANNELS 3 Zrotation Xrotation Yrotation
										End Site
										{
OFFSET 0 -0.490790 -0.000000
										}
									}
								}
								JOINT RThumb
								{
OFFSET 0 0.000000 0.000000
CHANNELS 3 Zrotation Xrotation Yrotation
									End Site
									{
OFFSET 0 -0.498290 0.498290
									}
								}
							}
						}
					}
				}
			}
		}
	}
}
MOTION
Frames: 7
Frame Time: 0.008333333333333333
9.102400 14.336700 -4.078900 -36.088000 -88.372300 45.664500 0.000000 0.000000 0.000000 -9.101000 -0.607700 -53.591800 13.277700 18.880200 69.986000 1.968900 -6.762300 -25.245700 0.409500 -4.108000 -11.380600 0.000000 0.000000 0.000000 14.656700 3.244400 -54.448300 -15.272600 -19.455500 76.056500 -2.985200 0.902900 -32.514900 -0.511800 4.585600 -12.730400 2.156500 -1.342100 19.273700 -0.163000 -1.406500 1.009200 -1.016700 -0.806100 -9.781500 3.060500 0.819900 -13.638700 -0.213800 0.488200 -0.313300 -0.575200 0.189300 2.266800 -0.000000 -0.000000 0.000000 31.914700 -46.382000 -25.369100 63.133200 -57.088600 36.960000 5.918100 2.404000 -15.951500 0.000000 0.000000 0.000000 -7.125000 0.000000 0.000000 -20.134100 45.009000 0.004700 -0.000000 -0.000000 0.000000 -32.340300 -51.414500 23.066700 -61.587900 -56.718400 -35.665500 -0.967900 18.113100 10.413800 0.000000 0.000000 0.000000 7.125000 0.000000 -0.000000 22.446400 39.355200 3.319600
9.103943 14.335286 -4.079928 -36.086612 -88.354843 45.665091 0.000000 0.000000 0.000000 -9.080792 -0.618986 -53.614347 13.284616 18.882565 70.007339 1.968360 -6.757569 -25.242589 0.410323 -4.112036 -11.391989 0.000000 0.000000 0.000000 14.671920 3.239644 -54.466657 -15.279002 -19.456991 76.075705 -2.984891 0.896575 -32.514977 -0.513343 4.592439 -12.749734 2.166861 -1.346805 19.284318 -0.159812 -1.409739 1.005806 -1.018011 -0.808080 -9.791475 3.061657 0.817792 -13.630036 -0.216191 0.485629 -0.320961 -0.576306 0.187809 2.262584 0.000000 0.000000 0.000000 31.902822 -46.382077 -25.370128 63.138188 -57.089757 36.964216 5.922111 2.400426 -15.942502 0.000000 0.000000 0.000000 -7.125000 0.000000 0.000000 -20.127236 45.001004 0.000561 0.000000 0.000000 0.000000 -32.338397 -51.412495 23.074567 -61.590034 -56.718940 -35.667274 -0.994329 18.093304 10.417862 0.000000 0.000000 0.000000 7.125000 0.000000 0.000000 22.426012 39.361190 3.312684
9.105485 14.333872 -4.080957 -36.085223 -88.337386 45.665683 0.000000 0.000000 0.000000 -9.060585 -0.630273 -53.636894 13.291532 18.884931 70.028678 1.967820 -6.752839 -25.239478 0.411145 -4.116073 -11.403379 0.000000 0.000000 0.000000 14.687140 3.234887 -54.485013 -15.285403 -19.458482 76.094910 -2.984583 0.890251 -32.515054 -0.514885 4.599277 -12.769067 2.177222 -1.351510 19.294936 -0.156624 -1.412979 1.002413 -1.019322 -0.810059 -9.801451 3.062814 0.815684 -13.621372 -0.218582 0.483058 -0.328623 -0.577411 0.186318 2.258367 0.000000 0.000000 0.000000 31.890944 -46.382154 -25.371157 63.143175 -57.090914 36.968433 5.926121 2.396853 -15.933503 0.000000 0.000000 0.000000 -7.125000 0.000000 0.000000 -20.120371 44.993009 -0.003578 0.000000 0.000000 0.000000 -32.336495 -51.410489 23.082434 -61.592168 -56.719480 -35.669048 -1.020759 18.073507 10.421924 0.000000 0.000000 0.000000 7.125000 0.000000 0.000000 22.405625 39.367181 3.305768
9.107028 14.332458 -4.081985 -36.083835 -88.319930 45.666274 0.000000 0.000000 0.000000 -9.040377 -0.641559 -53.659442 13.298448 18.887296 70.050017 1.967280 -6.748108 -25.236367 0.411968 -4.120109 -11.414768 0.000000 0.000000 0.000000 14.702360 3.230131 -54.503370 -15.291805 -19.459973 76.114115 -2.984274 0.883926 -32.515131 -0.516428 4.606116 -12.788401 2.187583 -1.356215 19.305554 -0.153436 -1.416218 0.999019 -1.020634 -0.812039 -9.811426 3.063971 0.813575 -13.612708 -0.220973 0.480487 -0.336284 -0.578517 0.184827 2.254151 0.000000 0.000000 0.000000 31.879067 -46.382231 -25.372185 63.148163 -57.092071 36.972649 5.930132 2.393279 -15.924505 0.000000 0.000000 0.000000 -7.125000 0.000000 0.000000 -20.113507 44.985013 -0.007718 0.000000 0.000000 0.000000 -32.334592 -51.408484 23.090301 -61.594302 -56.720020 -35.670822 -1.047188 18.053711 10.425986 0.000000 0.000000 0.000000 7.125000 0.000000 0.000000 22.385237 39.373171 3.298852
9.108576 14.331044 -4.082991 -36.012125 -88.303313 45.597310 0.000000 0.000000 0.000000 -9.022743 -0.654347 -53.682139 13.305205 18.889607 70.070867 1.966791 -6.743960 -25.233529 0.412487 -4.122650 -11.421940 0.000000 0.000000 0.000000 14.714708 3.224382 -54.523194 -15.298332 -19.461493 76.133692 -2.984028 0.878360 -32.515333 -0.517831 4.612325 -12.805960 2.195404 -1.361197 19.319033 -0.150089 -1.420198 0.993068 -1.020038 -0.814263 -9.825794 3.063774 0.811663 -13.603740 -0.222703 0.478427 -0.341471 -0.579145 0.183670 2.250715 0.000000 0.000000 0.000000 31.865012 -46.380211 -25.375314 63.150664 -57.092652 36.974774 5.933873 2.389805 -15.915995 0.000000 0.000000 0.000000 -7.125000 0.000000 0.000000 -20.107057 44.977443 -0.011638 0.000000 0.000000 0.000000 -32.330417 -51.403797 23.101225 -61.598002 -56.720946 -35.673907 -1.068770 18.035039 10.428680 0.000000 0.000000 0.000000 7.125000 0.000000 0.000000 22.368391 39.377487 3.293512
9.110170 14.329630 -4.083814 -35.373707 -88.293466 44.967813 0.000000 0.000000 0.000000 -9.025854 -0.679234 -53.706049 13.310681 18.891484 70.087784 1.966714 -6.744499 -25.232886 0.410559 -4.113137 -11.395125 0.000000 0.000000 0.000000 14.703910 3.210627 -54.554842 -15.305864 -19.463241 76.156265 -2.984285 0.878899 -32.516542 -0.518114 4.613456 -12.809226 2.182755 -1.368422 19.355566 -0.145461 -1.430148 0.966510 -1.004072 -0.818453 -9.875568 3.052667 0.811329 -13.592325 -0.219103 0.480484 -0.326714 -0.575932 0.185213 2.253569 0.000000 0.000000 0.000000 31.833415 -46.361289 -25.395367 63.133131 -57.088589 36.960042 5.935441 2.387131 -15.911419 0.000000 0.000000 0.000000 -7.125000 0.000000 0.000000 -20.103946 44.973304 -0.013798 0.000000 0.000000 0.000000 -32.307921 -51.377496 23.136781 -61.614328 -56.724982 -35.687559 -1.051288 18.025423 10.420351 0.000000 0.000000 0.000000 7.125000 0.000000 0.000000 22.380089 39.368309 3.300865
9.111764 14.328216 -4.084636 -34.735288 -88.283620 44.338315 0.000000 0.000000 0.000000 -9.028965 -0.704121 -53.729959 13.316157 18.893361 70.104701 1.966637 -6.745039 -25.232244 0.408631 -4.103625 -11.368310 0.000000 0.000000 0.000000 14.693112 3.196872 -54.586490 -15.313397 -19.464989 76.178838 -2.984543 0.879439 -32.517750 -0.518397 4.614587 -12.812491 2.170106 -1.375646 19.392099 -0.140834 -1.440097 0.939952 -0.988106 -0.822644 -9.925342 3.041561 0.810995 -13.580910 -0.215504 0.482541 -0.311956 -0.572718 0.186755 2.256423 0.000000 0.000000 0.000000 31.801818 -46.342367 -25.415421 63.115597 -57.084527 36.945311 5.937010 2.384457 -15.906842 0.000000 0.000000 0.000000 -7.125000 0.000000 0.000000 -20.100835 44.969165 -0.015958 0.000000 0.000000 0.000000 -32.285425 -51.351195 23.172338 -61.630653 -56.729018 -35.701211 -1.033805 18.015808 10.412021 0.000000 0.000000 0.000000 7.125000 0.000000 0.000000 22.391787 39.359130 3.308218
